<?xml version="1.0" encoding="UTF-8" standalone="no"?>
<!DOCTYPE svg PUBLIC "-//W3C//DTD SVG 1.1//EN" "http://www.w3.org/Graphics/SVG/1.1/DTD/svg11.dtd">
<svg width="100%" height="100%" viewBox="0 0 60 60" version="1.1" xmlns="http://www.w3.org/2000/svg" xmlns:xlink="http://www.w3.org/1999/xlink" xml:space="preserve" xmlns:serif="http://www.serif.com/" style="fill-rule:evenodd;clip-rule:evenodd;stroke-linejoin:round;stroke-miterlimit:2;">
    <g id="Travel-Icon" serif:id="Travel Icon" transform="matrix(1,0,0,1,0,-1)">
        <g transform="matrix(1,0,0,1,-7,-11)">
            <circle cx="37" cy="42" r="29" style="fill:rgb(0,191,255);"/>
        </g>
        <g transform="matrix(0.38186,0,0,0.38186,6.52604,10.4693)">
            <path d="M88.42,68.75C87.305,72.632 85.713,76.36 83.68,79.85L93.57,79.85C93.998,80.11 94.45,80.328 94.92,80.5C97.168,81.333 99.694,80.955 101.6,79.5L104.32,77.65C103.116,80.316 101.694,82.878 100.07,85.31C96.455,90.674 91.837,95.289 86.47,98.9C83.757,100.724 80.877,102.287 77.87,103.57C74.79,104.893 71.584,105.898 68.3,106.57C61.608,107.89 54.722,107.89 48.03,106.57C44.804,105.919 41.651,104.944 38.62,103.66L38.46,103.6C35.454,102.315 32.575,100.751 29.86,98.93C27.18,97.13 24.682,95.074 22.4,92.79C21.4,91.79 20.46,90.79 19.55,89.69C20.994,88.449 22.51,87.293 24.09,86.23C24.843,87.103 25.623,87.943 26.43,88.75C28.443,90.773 30.65,92.591 33.02,94.18C35.45,95.8 38.024,97.193 40.71,98.34L40.84,98.4C43.513,99.529 46.294,100.383 49.14,100.95C49.85,101.09 50.58,101.22 51.31,101.32C45.247,96.296 39.868,90.5 35.31,84.08L27.31,84.08C30.31,82.18 33.65,80.33 36.96,78.59C37.21,79.02 37.47,79.44 37.74,79.86L56,79.86L56,69.62L57.4,69.03C58.062,70.301 59.114,71.328 60.4,71.96L60.4,79.85L78.57,79.85C82.91,73.04 85.25,66.18 85.57,59.28L88.45,68.75L88.42,68.75ZM51.35,52.45C52.03,50.28 53.92,48.54 56.66,46.78L47.3,35.84C46.67,35.29 46.83,34.84 47.42,34.45L50.53,33.12C51.037,32.96 51.589,33.029 52.04,33.31L65.63,40.16L81.63,30.91L59.51,3.41C58.94,2.78 59.02,2.29 59.91,1.97L64.91,-0.03L98.15,21.46L110.15,15.63C114.72,13.63 118.66,13.31 121.15,14.8C122.342,15.29 123.071,16.519 122.93,17.8C122.98,20.8 120.47,24.04 116.04,26.8L103.57,31.66L102.57,71.19L98.11,74.19C97.34,74.74 96.89,74.54 96.69,73.71L86.37,40L69.73,48L67.73,63C67.702,63.545 67.435,64.05 67,64.38L64.17,66.2C63.52,66.46 63.06,66.34 62.97,65.51L59.21,51.61C56.21,52.89 53.69,53.47 51.51,52.79C51.31,52.73 51.29,52.64 51.35,52.45ZM47.15,45.52C33.93,52.52 16.25,63.89 9.75,70.52C-11.51,92.41 5.08,109.47 29.92,102C22.14,100.85 16.05,99.28 12.67,97.06C-1.76,87.58 44.67,67.12 55.53,62.64L54.68,59.49C52.972,59.645 51.249,59.465 49.61,58.96L49,58.69C47.367,58.086 46.073,56.806 45.45,55.18L45.32,54.83C44.784,53.465 44.759,51.952 45.25,50.57C45.754,48.937 46.573,47.419 47.66,46.1L47.17,45.52L47.15,45.52ZM8,63.11C7.77,61.082 7.656,59.041 7.66,57C7.657,53.595 7.992,50.199 8.66,46.86C9.303,43.633 10.275,40.48 11.56,37.45L11.62,37.3C12.912,34.292 14.479,31.41 16.3,28.69C18.094,26.012 20.147,23.516 22.43,21.24C24.712,18.956 27.21,16.9 29.89,15.1C32.605,13.279 35.484,11.715 38.49,10.43C41.57,9.109 44.777,8.103 48.06,7.43C49.999,7.044 51.959,6.77 53.93,6.61C54.154,6.96 54.401,7.294 54.67,7.61L60.39,14.74L60.39,29.86L70.61,29.86L65.42,32.86L56,28.12L56,14.71C50.69,19.262 45.852,24.338 41.56,29.86L42.89,29.86C41.825,30.776 41.067,31.999 40.72,33.36C40.643,33.622 40.586,33.889 40.55,34.16L40.55,34.25L38.48,34.25C36.077,37.908 34.148,41.856 32.74,46C30.93,47.09 29.11,48.2 27.31,49.34C28.482,44.006 30.508,38.897 33.31,34.21L19.54,34.21C18.543,35.927 17.651,37.704 16.87,39.53L16.81,39.66C15.674,42.344 14.819,45.139 14.26,48C13.812,50.249 13.538,52.529 13.44,54.82L19,54.82C15.19,57.391 11.518,60.161 8,63.12L8,63.11ZM85.52,59.21L74.7,59.21L75.29,54.81L84.19,54.81L85.52,59.21ZM81,84.07C76.437,90.489 71.059,96.288 65,101.32C65.73,101.21 66.45,101.08 67.17,100.94C70.058,100.357 72.879,99.483 75.59,98.33C78.277,97.185 80.851,95.792 83.28,94.17C85.65,92.581 87.857,90.763 89.87,88.74C91.358,87.286 92.739,85.725 94,84.07L81,84.07ZM60.38,99.5C66.039,94.963 71.153,89.785 75.62,84.07L60.38,84.07L60.38,99.5ZM56,84.07L40.75,84.07C45.222,89.783 50.34,94.961 56,99.5L56,84.07ZM36.16,29.86C40.665,23.542 45.887,17.767 51.72,12.65C50.86,12.77 50.01,12.91 49.17,13.08C46.276,13.652 43.451,14.526 40.74,15.69C38.054,16.837 35.48,18.23 33.05,19.85C30.68,21.439 28.473,23.257 26.46,25.28C25.021,26.708 23.685,28.235 22.46,29.85L36.16,29.86Z" style="fill:white;fill-rule:nonzero;"/>
        </g>
    </g>
</svg>
