<?xml version="1.0" encoding="UTF-8" standalone="no"?>
<!DOCTYPE svg PUBLIC "-//W3C//DTD SVG 1.1//EN" "http://www.w3.org/Graphics/SVG/1.1/DTD/svg11.dtd">
<svg width="100%" height="100%" viewBox="0 0 120 40" version="1.1" xmlns="http://www.w3.org/2000/svg" xmlns:xlink="http://www.w3.org/1999/xlink" xml:space="preserve" xmlns:serif="http://www.serif.com/" style="fill-rule:evenodd;clip-rule:evenodd;stroke-linejoin:round;stroke-miterlimit:2;">
    <g id="LOGO" transform="matrix(1.2781,0,0,1.2781,-2.30257,-5.56193)">
        <g id="Travel-Icon" serif:id="Travel Icon" transform="matrix(0.482759,0,0,0.482759,1.51724,5.03448)">
            <g transform="matrix(1,0,0,1,-7,-11)">
                <circle cx="37" cy="42" r="29" style="fill:white;"/>
            </g>
            <g transform="matrix(0.38186,0,0,0.38186,6.52604,10.4693)">
                <path d="M88.42,68.75C87.305,72.632 85.713,76.36 83.68,79.85L93.57,79.85C93.998,80.11 94.45,80.328 94.92,80.5C97.168,81.333 99.694,80.955 101.6,79.5L104.32,77.65C103.116,80.316 101.694,82.878 100.07,85.31C96.455,90.674 91.837,95.289 86.47,98.9C83.757,100.724 80.877,102.287 77.87,103.57C74.79,104.893 71.584,105.898 68.3,106.57C61.608,107.89 54.722,107.89 48.03,106.57C44.804,105.919 41.651,104.944 38.62,103.66L38.46,103.6C35.454,102.315 32.575,100.751 29.86,98.93C27.18,97.13 24.682,95.074 22.4,92.79C21.4,91.79 20.46,90.79 19.55,89.69C20.994,88.449 22.51,87.293 24.09,86.23C24.843,87.103 25.623,87.943 26.43,88.75C28.443,90.773 30.65,92.591 33.02,94.18C35.45,95.8 38.024,97.193 40.71,98.34L40.84,98.4C43.513,99.529 46.294,100.383 49.14,100.95C49.85,101.09 50.58,101.22 51.31,101.32C45.247,96.296 39.868,90.5 35.31,84.08L27.31,84.08C30.31,82.18 33.65,80.33 36.96,78.59C37.21,79.02 37.47,79.44 37.74,79.86L56,79.86L56,69.62L57.4,69.03C58.062,70.301 59.114,71.328 60.4,71.96L60.4,79.85L78.57,79.85C82.91,73.04 85.25,66.18 85.57,59.28L88.45,68.75L88.42,68.75ZM51.35,52.45C52.03,50.28 53.92,48.54 56.66,46.78L47.3,35.84C46.67,35.29 46.83,34.84 47.42,34.45L50.53,33.12C51.037,32.96 51.589,33.029 52.04,33.31L65.63,40.16L81.63,30.91L59.51,3.41C58.94,2.78 59.02,2.29 59.91,1.97L64.91,-0.03L98.15,21.46L110.15,15.63C114.72,13.63 118.66,13.31 121.15,14.8C122.342,15.29 123.071,16.519 122.93,17.8C122.98,20.8 120.47,24.04 116.04,26.8L103.57,31.66L102.57,71.19L98.11,74.19C97.34,74.74 96.89,74.54 96.69,73.71L86.37,40L69.73,48L67.73,63C67.702,63.545 67.435,64.05 67,64.38L64.17,66.2C63.52,66.46 63.06,66.34 62.97,65.51L59.21,51.61C56.21,52.89 53.69,53.47 51.51,52.79C51.31,52.73 51.29,52.64 51.35,52.45ZM47.15,45.52C33.93,52.52 16.25,63.89 9.75,70.52C-11.51,92.41 5.08,109.47 29.92,102C22.14,100.85 16.05,99.28 12.67,97.06C-1.76,87.58 44.67,67.12 55.53,62.64L54.68,59.49C52.972,59.645 51.249,59.465 49.61,58.96L49,58.69C47.367,58.086 46.073,56.806 45.45,55.18L45.32,54.83C44.784,53.465 44.759,51.952 45.25,50.57C45.754,48.937 46.573,47.419 47.66,46.1L47.17,45.52L47.15,45.52ZM8,63.11C7.77,61.082 7.656,59.041 7.66,57C7.657,53.595 7.992,50.199 8.66,46.86C9.303,43.633 10.275,40.48 11.56,37.45L11.62,37.3C12.912,34.292 14.479,31.41 16.3,28.69C18.094,26.012 20.147,23.516 22.43,21.24C24.712,18.956 27.21,16.9 29.89,15.1C32.605,13.279 35.484,11.715 38.49,10.43C41.57,9.109 44.777,8.103 48.06,7.43C49.999,7.044 51.959,6.77 53.93,6.61C54.154,6.96 54.401,7.294 54.67,7.61L60.39,14.74L60.39,29.86L70.61,29.86L65.42,32.86L56,28.12L56,14.71C50.69,19.262 45.852,24.338 41.56,29.86L42.89,29.86C41.825,30.776 41.067,31.999 40.72,33.36C40.643,33.622 40.586,33.889 40.55,34.16L40.55,34.25L38.48,34.25C36.077,37.908 34.148,41.856 32.74,46C30.93,47.09 29.11,48.2 27.31,49.34C28.482,44.006 30.508,38.897 33.31,34.21L19.54,34.21C18.543,35.927 17.651,37.704 16.87,39.53L16.81,39.66C15.674,42.344 14.819,45.139 14.26,48C13.812,50.249 13.538,52.529 13.44,54.82L19,54.82C15.19,57.391 11.518,60.161 8,63.12L8,63.11ZM85.52,59.21L74.7,59.21L75.29,54.81L84.19,54.81L85.52,59.21ZM81,84.07C76.437,90.489 71.059,96.288 65,101.32C65.73,101.21 66.45,101.08 67.17,100.94C70.058,100.357 72.879,99.483 75.59,98.33C78.277,97.185 80.851,95.792 83.28,94.17C85.65,92.581 87.857,90.763 89.87,88.74C91.358,87.286 92.739,85.725 94,84.07L81,84.07ZM60.38,99.5C66.039,94.963 71.153,89.785 75.62,84.07L60.38,84.07L60.38,99.5ZM56,84.07L40.75,84.07C45.222,89.783 50.34,94.961 56,99.5L56,84.07ZM36.16,29.86C40.665,23.542 45.887,17.767 51.72,12.65C50.86,12.77 50.01,12.91 49.17,13.08C46.276,13.652 43.451,14.526 40.74,15.69C38.054,16.837 35.48,18.23 33.05,19.85C30.68,21.439 28.473,23.257 26.46,25.28C25.021,26.708 23.685,28.235 22.46,29.85L36.16,29.86Z" style="fill:rgb(0,191,255);fill-rule:nonzero;"/>
            </g>
        </g>
        <g id="TEXT" transform="matrix(1,0,0,1,-3,-4)">
            <g id="UX">
                <path d="M44.419,13.378L44.419,18.91C44.419,19.478 44.304,19.987 44.074,20.437C43.844,20.887 43.5,21.243 43.042,21.505C42.584,21.767 42.011,21.898 41.323,21.898C40.631,21.898 40.056,21.772 39.598,21.52C39.14,21.268 38.797,20.918 38.569,20.47C38.341,20.022 38.227,19.502 38.227,18.91L38.227,13.378L40.201,13.378L40.201,18.178C40.201,18.926 40.269,19.489 40.405,19.867C40.541,20.245 40.847,20.434 41.323,20.434C41.799,20.434 42.105,20.245 42.241,19.867C42.377,19.489 42.445,18.926 42.445,18.178L42.445,13.378L44.419,13.378Z" style="fill:white;fill-rule:nonzero;"/>
                <path d="M45.211,13.378L47.329,13.378L48.583,16.048L49.867,13.378L51.943,13.378L49.735,17.194L52.147,21.694L50.029,21.694L48.559,18.52L47.113,21.694L45.025,21.694L47.389,17.278L45.211,13.378Z" style="fill:white;fill-rule:nonzero;"/>
            </g>
            <g id="TRAVEL" transform="matrix(1,0,0,1,-4,0)">
                <path d="M64.075,14.884L64.075,21.694L62.107,21.694L62.107,14.884L59.773,14.884L59.773,13.378L66.505,13.378L66.301,14.884L64.075,14.884Z" style="fill:white;fill-rule:nonzero;"/>
                <path d="M73.501,15.904C73.501,16.3 73.427,16.646 73.279,16.942C73.131,17.238 72.931,17.488 72.679,17.692C72.427,17.896 72.145,18.06 71.833,18.184L74.011,21.694L71.785,21.694L69.985,18.514L69.427,18.514L69.427,21.694L67.459,21.694L67.459,13.378L70.075,13.378C71.207,13.378 72.061,13.584 72.637,13.996C73.213,14.408 73.501,15.044 73.501,15.904ZM71.473,15.904C71.473,15.504 71.356,15.213 71.122,15.031C70.888,14.849 70.541,14.758 70.081,14.758L69.427,14.758L69.427,17.164L70.159,17.164C70.587,17.164 70.913,17.064 71.137,16.864C71.361,16.664 71.473,16.344 71.473,15.904Z" style="fill:white;fill-rule:nonzero;"/>
                <path d="M78.823,19.9L76.387,19.9L75.949,21.694L73.891,21.694L76.435,13.378L78.823,13.378L81.367,21.694L79.261,21.694L78.823,19.9ZM76.699,18.472L78.499,18.472L77.599,14.794L76.699,18.472Z" style="fill:white;fill-rule:nonzero;"/>
                <path d="M84.919,20.158L86.485,13.378L88.501,13.378L86.101,21.694L83.665,21.694L81.277,13.378L83.365,13.378L84.919,20.158Z" style="fill:white;fill-rule:nonzero;"/>
                <path d="M91.627,14.782L91.627,16.78L94.507,16.78L94.507,18.16L91.627,18.16L91.627,20.284L95.101,20.284L95.101,21.694L89.659,21.694L89.659,13.378L95.095,13.378L94.897,14.782L91.627,14.782Z" style="fill:white;fill-rule:nonzero;"/>
                <path d="M96.919,21.694L96.919,13.378L98.887,13.378L98.887,20.14L102.493,20.14L102.289,21.694L96.919,21.694Z" style="fill:white;fill-rule:nonzero;"/>
            </g>
            <g id="AGENCY">
                <path d="M42.523,31.9L40.087,31.9L39.649,33.694L37.591,33.694L40.135,25.378L42.523,25.378L45.067,33.694L42.961,33.694L42.523,31.9ZM40.399,30.472L42.199,30.472L41.299,26.794L40.399,30.472Z" style="fill:white;fill-rule:nonzero;"/>
                <path d="M48.889,33.898C48.101,33.898 47.437,33.731 46.897,33.397C46.357,33.063 45.948,32.571 45.67,31.921C45.392,31.271 45.253,30.47 45.253,29.518C45.253,28.81 45.352,28.185 45.55,27.643C45.748,27.101 46.023,26.647 46.375,26.281C46.727,25.915 47.137,25.638 47.605,25.45C48.073,25.262 48.577,25.168 49.117,25.168C49.725,25.168 50.237,25.262 50.653,25.45C51.069,25.638 51.439,25.886 51.763,26.194L50.731,27.262C50.479,27.038 50.237,26.872 50.005,26.764C49.773,26.656 49.509,26.602 49.213,26.602C48.933,26.602 48.676,26.657 48.442,26.767C48.208,26.877 48.004,27.049 47.83,27.283C47.656,27.517 47.521,27.819 47.425,28.189C47.329,28.559 47.281,29.006 47.281,29.53C47.281,30.254 47.34,30.83 47.458,31.258C47.576,31.686 47.755,31.993 47.995,32.179C48.235,32.365 48.539,32.458 48.907,32.458C49.103,32.458 49.287,32.435 49.459,32.389C49.631,32.343 49.791,32.282 49.939,32.206L49.939,30.304L48.895,30.304L48.703,28.924L51.799,28.924L51.799,33.058C51.383,33.314 50.936,33.518 50.458,33.67C49.98,33.822 49.457,33.898 48.889,33.898Z" style="fill:white;fill-rule:nonzero;"/>
                <path d="M55.327,26.782L55.327,28.78L58.207,28.78L58.207,30.16L55.327,30.16L55.327,32.284L58.801,32.284L58.801,33.694L53.359,33.694L53.359,25.378L58.795,25.378L58.597,26.782L55.327,26.782Z" style="fill:white;fill-rule:nonzero;"/>
                <path d="M63.691,33.694L61.501,27.004C61.529,27.184 61.56,27.401 61.594,27.655C61.628,27.909 61.661,28.191 61.693,28.501C61.725,28.811 61.751,29.14 61.771,29.488C61.791,29.836 61.801,30.192 61.801,30.556L61.801,33.694L60.127,33.694L60.127,25.378L62.581,25.378L64.705,32.032C64.661,31.78 64.616,31.479 64.57,31.129C64.524,30.779 64.485,30.388 64.453,29.956C64.421,29.524 64.405,29.06 64.405,28.564L64.405,25.378L66.079,25.378L66.079,33.694L63.691,33.694Z" style="fill:white;fill-rule:nonzero;"/>
                <path d="M71.059,25.168C71.655,25.168 72.162,25.247 72.58,25.405C72.998,25.563 73.381,25.786 73.729,26.074L72.763,27.238C72.535,27.05 72.283,26.901 72.007,26.791C71.731,26.681 71.431,26.626 71.107,26.626C70.759,26.626 70.441,26.725 70.153,26.923C69.865,27.121 69.635,27.433 69.463,27.859C69.291,28.285 69.205,28.838 69.205,29.518C69.205,30.186 69.288,30.731 69.454,31.153C69.62,31.575 69.849,31.885 70.141,32.083C70.433,32.281 70.767,32.38 71.143,32.38C71.559,32.38 71.905,32.302 72.181,32.146C72.457,31.99 72.711,31.82 72.943,31.636L73.837,32.776C73.525,33.084 73.141,33.348 72.685,33.568C72.229,33.788 71.679,33.898 71.035,33.898C70.283,33.898 69.616,33.731 69.034,33.397C68.452,33.063 67.996,32.571 67.666,31.921C67.336,31.271 67.171,30.47 67.171,29.518C67.171,28.59 67.342,27.802 67.684,27.154C68.026,26.506 68.491,26.013 69.079,25.675C69.667,25.337 70.327,25.168 71.059,25.168Z" style="fill:white;fill-rule:nonzero;"/>
                <path d="M78.607,30.574L78.607,33.694L76.639,33.694L76.639,30.586L73.927,25.378L76.081,25.378L77.659,28.96L79.249,25.378L81.319,25.378L78.607,30.574Z" style="fill:white;fill-rule:nonzero;"/>
            </g>
        </g>
    </g>
</svg>
